<svg xmlns="http://www.w3.org/2000/svg" viewBox="0 0 40.51 189.96"><defs><style>.cls-1{fill:#f02b22;}.cls-2{fill:#f50018;}</style></defs><g id="Layer_2" data-name="Layer 2"><g id="OBJECTS"><path class="cls-1" d="M40.51,136.59c0-18.82-1.44-18.82-1.44-37.65s1.44-18.82,1.44-37.64-1.44-18.82-1.44-37.64c0-12.35-.44-16.83,0-23.66H.15c-.39,6.77.1,11.08.1,23.43,0,18.7,1.44,18.7,1.44,37.41S.25,79.54.25,98.24s1.44,18.7,1.44,37.4c0,7.47-1.45,25.72-1.53,34.23,0,0,0,.63,0,.75C.4,185.76,13.24,190,19.29,190c5.76,0,17.54-.58,19.69-17.39.11-.88.09-1.29.14-2.37l0-.33C39.31,155.29,40.51,153.83,40.51,136.59Z"/><path class="cls-2" d="M7.3,63.26q-.52,3.5-1.14,7c.53.25,1-.33,1.29-.85a18.47,18.47,0,0,0,1.24-7.24l.25-7.39A14.16,14.16,0,0,0,8.74,51a4.42,4.42,0,0,0-1.55-2.66C7.67,53.5,8.09,58,7.3,63.26Z"/><path class="cls-2" d="M32.92,146.46c-1.35-3.42.15-7.22.55-10.87.6-5.47-2.11-12-.08-17.25,2.55,1.29,1.6,10.21,1.59,12.75A53.21,53.21,0,0,1,32.92,146.46Z"/><path class="cls-2" d="M19.44,188h-.5A21.65,21.65,0,0,1,1.41,177.82c3.09,8.48,11.21,11.59,16.39,12.1.52,0,1,0,1.49,0h.23c.66,0,1.39,0,2.18,0,4.53-.24,10.73-1.56,14.44-8.11C31.56,187.55,24.11,188,19.44,188Z"/></g></g></svg>