<svg xmlns="http://www.w3.org/2000/svg" viewBox="0 0 40.51 169.87"><defs><style>.cls-1{fill:#f02b22;}.cls-2{fill:#f50018;}</style></defs><g id="Layer_2" data-name="Layer 2"><g id="OBJECTS"><path class="cls-1" d="M39.07,23.66c0-12.35-.44-16.83,0-23.66H.15c-.39,6.77.1,11.08.1,23.43,0,18.7,1.44,18.7,1.44,37.41S.25,79.54.25,98.24s1.44,18.7,1.44,37.4c0,17.58-1.38,18.64-1.53,34.23H39.1c.21-14.58,1.41-16,1.41-33.28,0-18.82-1.44-18.82-1.44-37.65s1.44-18.82,1.44-37.64S39.07,42.48,39.07,23.66Z"/><path class="cls-2" d="M7.3,63.26q-.52,3.5-1.14,7c.53.25,1-.33,1.29-.85a18.47,18.47,0,0,0,1.24-7.24l.25-7.39A14.16,14.16,0,0,0,8.74,51a4.42,4.42,0,0,0-1.55-2.66C7.67,53.5,8.09,58,7.3,63.26Z"/><path class="cls-2" d="M32.92,146.46c-1.35-3.42.15-7.22.55-10.87.6-5.47-2.11-12-.08-17.25,2.55,1.29,1.6,10.21,1.59,12.75A53.21,53.21,0,0,1,32.92,146.46Z"/></g></g></svg>